# xmcd
#
# Track frame offsets:
#	150
#	30692
#	56835
#	71142
#	85822
#	126447
#	158082
#	183202
#	200812
#	229247
#	250192
#	273677
# Disc length: 4440 seconds
# Revision: 5
# Processed by: cddbd v1.5.2PL0 Copyright (c) Steve Scherf et al.
#
# Submitted via: libkcddb 0.31
#
DISCID=b311560c
DTITLE=Beatles-Blue Note - Blue Note Plays The Beatles
DYEAR=2004
DGENRE=Jazz
TTITLE0=Stanley Turrentine - Can't Buy Me Love
TTITLE1=Lee Morgan - Yesterday
TTITLE2=Buddy Rich - Norwegian Wood
TTITLE3=Bud Shank and Chet Baker - Hello Goodbuy
TTITLE4=Grant Green - A Day In The Life
TTITLE5=Stanley Jordan - Eleanore Rigby
TTITLE6=Tony Williams - Blackbird
TTITLE7=Holly Cole - I've Just Seen a Face
TTITLE8=Kevin Hays - And I Love Her
TTITLE9=Dianne Reeves, Cassandra Wilson and Bob Belden - Come Together
TTITLE10=Bobby McFerrin - Drive My Car
TTITLE11=Various Artist - DATA
EXTD=YEAR: 2004
EXTT0=
EXTT1=
EXTT2=
EXTT3=
EXTT4=
EXTT5=
EXTT6=
EXTT7=
EXTT8=
EXTT9=
EXTT10=
EXTT11=
PLAYORDER=
